<?xml version="1.0" encoding="UTF-8"?>
<svg version="1.1" xmlns="http://www.w3.org/2000/svg" width="979" height="647">
<path d="M0 0 C323.07 0 646.14 0 979 0 C979 209.88 979 419.76 979 636 C655.93 636 332.86 636 0 636 C0 426.12 0 216.24 0 0 Z " fill="#434D51" transform="translate(0,11)"/>
<path d="M0 0 C4.91254794 2.30507476 9.5215711 5.04401738 14.17578125 7.828125 C22.67963321 12.85549403 31.22761673 17.78068488 39.86328125 22.578125 C48.58038713 27.43061281 57.24424185 32.36586446 65.86328125 37.390625 C66.90291016 37.99583984 67.94253906 38.60105469 69.01367188 39.22460938 C76.23464946 43.44949321 76.23464946 43.44949321 77.36328125 44.578125 C77.52769732 47.36502203 77.62686314 50.12836114 77.68310547 52.91821289 C77.7041333 53.7930835 77.72516113 54.6679541 77.74682617 55.56933594 C77.92999137 63.65871965 78.03590242 71.74956721 78.11897087 79.84053898 C78.17557694 85.27855897 78.25709105 90.71362518 78.39892578 96.15014648 C78.53543201 101.40359702 78.60781462 106.65437004 78.63562393 111.90948296 C78.65707656 113.91003637 78.70108708 115.91048298 78.76833725 117.91002083 C79.25711329 133.14620781 79.25711329 133.14620781 76.11870003 137.17632294 C72.62673109 140.22778102 68.6502474 141.86100781 64.36328125 143.578125 C62.3836213 144.66884282 60.41597241 145.78206222 58.46875 146.9296875 C56.49730863 148.02302681 54.52461845 149.11411691 52.55078125 150.203125 C43.91005039 155.00411189 35.32920304 159.89289627 26.80078125 164.890625 C25.31263916 165.7580835 25.31263916 165.7580835 23.79443359 166.64306641 C19.33786864 169.24167477 14.8939329 171.85613237 10.48046875 174.52734375 C9.04576007 175.37791992 7.6108779 176.22820356 6.17578125 177.078125 C5.54663818 177.47040283 4.91749512 177.86268066 4.26928711 178.2668457 C2.5078125 179.296875 2.5078125 179.296875 -0.63671875 180.578125 C-4.24781828 179.44316562 -7.45672732 177.65910359 -10.75 175.8125 C-11.73806641 175.25949219 -12.72613281 174.70648438 -13.74414062 174.13671875 C-15.3306543 173.24146484 -15.3306543 173.24146484 -16.94921875 172.328125 C-18.05716797 171.70550781 -19.16511719 171.08289063 -20.30664062 170.44140625 C-28.77561423 165.66649997 -37.17926313 160.7841866 -45.56201172 155.85961914 C-54.26641746 150.75914532 -63.05874181 145.82471115 -71.88085938 140.93164062 C-72.88181641 140.37541016 -73.88277344 139.81917969 -74.9140625 139.24609375 C-75.80343506 138.75391357 -76.69280762 138.2617334 -77.60913086 137.75463867 C-79.63671875 136.578125 -79.63671875 136.578125 -80.63671875 135.578125 C-80.85965156 132.82403249 -81.01706097 130.09264729 -81.13110352 127.33325195 C-81.16980057 126.4680191 -81.20849762 125.60278625 -81.24836731 124.71133423 C-81.58907756 116.68588734 -81.7970423 108.6573877 -81.96234226 100.62658405 C-82.07604945 95.23229339 -82.23457173 89.84776862 -82.50219727 84.45874023 C-84.18270934 49.74792886 -84.18270934 49.74792886 -78.40179443 41.31976318 C-72.85350366 36.30174938 -66.58046495 33.71168178 -59.50411987 31.50668335 C-55.83263068 30.31773496 -52.94471231 28.66472067 -49.66796875 26.640625 C-47.82520083 25.61801993 -45.98148471 24.59712122 -44.13671875 23.578125 C-24.3136707 12.65343036 -24.3136707 12.65343036 -4.99780273 0.87280273 C-2.63671875 -0.421875 -2.63671875 -0.421875 0 0 Z " fill="#FC837B" transform="translate(271.63671875,241.421875)"/>
<path d="M0 0 C6.6 0 13.2 0 20 0 C20 46.2 20 92.4 20 140 C13.4 140 6.8 140 0 140 C-0.33 138.02 -0.66 136.04 -1 134 C-1.94875 134.598125 -2.8975 135.19625 -3.875 135.8125 C-14.95429644 141.96523182 -28.01131668 142.85215011 -40.35546875 140.30859375 C-43.06160124 139.39637137 -45.48099179 138.34123565 -48 137 C-48.78503906 136.5875 -49.57007813 136.175 -50.37890625 135.75 C-60.2825592 129.8513776 -65.97131922 120.55576825 -70 110 C-70.36867188 109.07058594 -70.73734375 108.14117187 -71.1171875 107.18359375 C-72.17882361 103.35512726 -72.30219338 99.75177343 -72.25 95.8125 C-72.24178223 95.06145996 -72.23356445 94.31041992 -72.22509766 93.53662109 C-71.93025799 78.76610493 -67.69346264 68.0841132 -57.421875 57.2265625 C-53.62517775 53.73605051 -49.62652876 51.2465356 -45 49 C-44.34 48.66097656 -43.68 48.32195312 -43 47.97265625 C-33.88281846 44.10853829 -21.03250512 44.52363583 -11.8125 47.75 C-7.62516197 49.49993231 -3.99400012 51.71771422 0 54 C0 36.18 0 18.36 0 0 Z " fill="#FB837B" transform="translate(647,261)"/>
<path d="M0 0 C10.77562796 7.10280829 18.31272707 16.06481581 22.08203125 28.4609375 C24.72937792 41.35366535 23.33650132 55.57614581 16.3359375 66.828125 C15.18358011 68.51928037 13.99624918 70.18719062 12.7734375 71.828125 C12.13664063 72.68277344 11.49984375 73.53742188 10.84375 74.41796875 C4.49733145 81.80615789 -5.55941821 87.42079923 -15.2265625 88.828125 C-32.37711694 89.93053761 -44.6659434 88.07662028 -58.31640625 77.15625 C-67.51352012 68.89473505 -72.53894993 56.77800293 -73.47265625 44.625 C-73.98730397 30.46438991 -69.68458639 17.53994839 -59.9765625 7.078125 C-55.8385559 3.22143025 -51.24439113 0.40384472 -46.2265625 -2.171875 C-45.41703125 -2.58824219 -44.6075 -3.00460937 -43.7734375 -3.43359375 C-30.00548001 -9.45179603 -12.74215225 -7.35261446 0 0 Z " fill="#FB837B" transform="translate(762.2265625,313.171875)"/>
<path d="M0 0 C11.68500474 7.67268383 18.85832606 18.81074928 22.09375 32.390625 C23.46042974 48.32930557 20.52056052 61.3204116 10.2109375 73.640625 C1.87118703 82.55436639 -8.80348533 88.19691412 -21.08984375 88.82421875 C-22.84099119 88.84752799 -24.59256547 88.84845759 -26.34375 88.828125 C-27.26317383 88.82055176 -28.18259766 88.81297852 -29.12988281 88.80517578 C-42.74367772 88.47483751 -53.59762262 82.63646473 -62.984375 72.85546875 C-72.34159496 60.85464396 -75.12879108 47.35514682 -73.90625 32.390625 C-71.38613236 19.85039889 -64.36492012 8.76656982 -53.90625 1.390625 C-36.27345877 -8.81185343 -18.10014188 -10.02319685 0 0 Z " fill="#FB837B" transform="translate(535.90625,313.609375)"/>
<path d="M0 0 C6.6 0 13.2 0 20 0 C20 9.57 20 19.14 20 29 C27.92 29 35.84 29 44 29 C44 34.28 44 39.56 44 45 C36.08 45 28.16 45 20 45 C20.05113826 51.97525895 20.11420513 58.94832149 20.20751953 65.92285156 C20.23566889 68.29322156 20.25691329 70.66368438 20.27099609 73.03417969 C20.29250851 76.45035106 20.33920394 79.86541355 20.390625 83.28125 C20.39185364 84.33364868 20.39308228 85.38604736 20.39434814 86.47033691 C20.5243774 93.06742881 21.49885499 97.36758215 25 103 C28.72268206 106.13456086 32.03087354 106.44600371 36.8125 106.6875 C39.8753125 106.8421875 39.8753125 106.8421875 43 107 C43 111.62 43 116.24 43 121 C35.96886297 124.51556851 26.48918491 124.21865499 18.90625 122.16015625 C11.99327688 118.99171024 6.83927687 114.09912009 3.71875 107.14453125 C2.72155036 104.44853079 1.82702226 101.75229452 1 99 C0.67 98.01 0.34 97.02 0 96 C-0.08754798 94.32779029 -0.11765995 92.65227801 -0.11352539 90.9777832 C-0.11344986 89.95695145 -0.11337433 88.93611969 -0.11329651 87.88435364 C-0.10813522 86.78427475 -0.10297394 85.68419586 -0.09765625 84.55078125 C-0.0962413 83.4230278 -0.09482635 82.29527435 -0.09336853 81.13334656 C-0.0877647 77.52637088 -0.07521153 73.91945696 -0.0625 70.3125 C-0.05748549 67.86914152 -0.0529225 65.42578207 -0.04882812 62.98242188 C-0.03779403 56.98825741 -0.02052679 50.99413918 0 45 C-3.63 45 -7.26 45 -11 45 C-11 39.72 -11 34.44 -11 29 C-7.37 29 -3.74 29 0 29 C0 19.43 0 9.86 0 0 Z " fill="#F8827A" transform="translate(400,279)"/>
<path d="M0 0 C8.20580372 5.15248141 11.35562968 11.51920179 13.62109375 20.80859375 C14.72723742 32.59031002 13.25828094 43.64236061 5.56640625 53.015625 C-0.10873411 58.24632666 -6.86895483 61.13867224 -14.56640625 61.43359375 C-22.92349875 60.96384868 -29.46460507 57.72289493 -35.37890625 51.80859375 C-43.26415641 41.22921645 -43.74104122 29.68070064 -41.984375 16.94921875 C-39.80356449 9.01388243 -33.68387354 2.78896979 -26.69140625 -1.25390625 C-18.01311398 -5.14371268 -8.36825218 -4.19099658 0 0 Z " fill="#4A5357" transform="translate(637.37890625,326.19140625)"/>
<path d="M0 0 C1.828125 1.1171875 1.828125 1.1171875 3.5625 2.375 C4.48289062 3.02855469 4.48289062 3.02855469 5.421875 3.6953125 C10.93459231 8.00654014 15.09265148 13.45825012 16.5625 20.375 C17.66227874 32.52825112 17.71093787 42.92741522 9.6953125 52.63671875 C3.80981132 59.01458676 -2.18944146 61.76445646 -10.82421875 62.3671875 C-18.12085373 62.38900106 -23.96995586 60.92922892 -29.62109375 56.19140625 C-36.88877071 48.92372929 -40.31772747 40.27389761 -40.49609375 30 C-39.87370741 18.5586851 -37.0797188 11.14561041 -28.4375 3.375 C-20.41159016 -2.60618065 -9.27216372 -4.26699573 0 0 Z " fill="#4D565A" transform="translate(748.4375,324.625)"/>
<path d="M0 0 C6.32913353 3.6642352 11.36514082 9.42765057 14.5625 16 C16.89227114 24.81984787 17.45014858 37.33818761 13.5625 45.6875 C9.21544909 52.71154837 3.62908101 58.63565729 -4.4375 61 C-12.77917406 62.64052923 -20.14377498 62.07697838 -27.625 57.875 C-36.14858457 52.01185833 -39.23769419 43.85562714 -41.4375 34 C-42.61918855 26.55137894 -40.67118948 17.96495015 -36.99609375 11.44140625 C-28.32891899 -0.4835001 -14.15757274 -6.49070258 0 0 Z " fill="#464F54" transform="translate(522.4375,325)"/>
<path d="M0 0 C5.53636532 2.21454613 10.76524219 5.14467756 16 8 C16 23.84 16 39.68 16 56 C17.65 56.66 19.3 57.32 21 58 C22.88367952 58.98716713 24.75129019 60.0053524 26.60546875 61.046875 C27.67216797 61.645 28.73886719 62.243125 29.83789062 62.859375 C30.94326172 63.48328125 32.04863281 64.1071875 33.1875 64.75 C34.27353516 65.3584375 35.35957031 65.966875 36.47851562 66.59375 C38.6305247 67.80352807 40.77587793 69.02523002 42.9140625 70.25927734 C44.91502383 71.38798417 46.94621658 72.46527435 49.0078125 73.47900391 C55.57204308 76.86237595 55.57204308 76.86237595 56.77514648 80.06054688 C56.98649289 82.41533012 56.8837388 84.5264478 56.625 86.875 C56.57988281 87.65875 56.53476562 88.4425 56.48828125 89.25 C56.37120814 91.16999895 56.19182392 93.0860236 56 95 C52.6085822 94.32986605 49.9887225 93.02453945 46.984375 91.33203125 C45.99131348 90.77483398 44.99825195 90.21763672 43.97509766 89.64355469 C42.91081543 89.03930664 41.8465332 88.43505859 40.75 87.8125 C39.65349121 87.19407227 38.55698242 86.57564453 37.42724609 85.93847656 C7.56849388 69.04566259 7.56849388 69.04566259 0 64 C-0.36076355 61.32980347 -0.36076355 61.32980347 -0.34057617 57.89794922 C-0.34034958 56.61677216 -0.34012299 55.33559509 -0.33988953 54.01559448 C-0.32456841 52.6119553 -0.3089204 51.20831966 -0.29296875 49.8046875 C-0.28737438 48.37265465 -0.28310353 46.94061607 -0.28010559 45.50857544 C-0.26864413 41.73712344 -0.23916624 37.96601735 -0.20599365 34.19470215 C-0.1753205 30.34729696 -0.16160618 26.49983594 -0.14648438 22.65234375 C-0.11429738 15.1014047 -0.06308584 7.55075079 0 0 Z " fill="#3F464B" transform="translate(206,304)"/>
<path d="M0 0 C1.95870085 0.96625542 3.87973692 2.01055509 5.76953125 3.10546875 C6.89520508 3.75322266 8.02087891 4.40097656 9.18066406 5.06835938 C10.39137959 5.7745621 11.60198933 6.4809462 12.8125 7.1875 C14.0553304 7.90617628 15.29849842 8.624269 16.54199219 9.34179688 C19.73530496 11.18701741 22.92342252 13.04100479 26.10968018 14.89837646 C27.95891031 15.97605412 29.80910494 17.05205445 31.65966797 18.12744141 C38.44720686 22.07229455 45.22766386 26.02910219 52 30 C49.56011995 32.51456129 47.10350339 34.38504043 44.125 36.25 C43.28195312 36.79140625 42.43890625 37.3328125 41.5703125 37.890625 C38.39409704 39.26151435 37.29516775 38.93531222 34 38 C32.02257654 37.01310147 30.08308839 35.94843247 28.17578125 34.83203125 C27.06396484 34.18556641 25.95214844 33.53910156 24.80664062 32.87304688 C23.6418575 32.18631593 22.47714428 31.49946639 21.3125 30.8125 C20.17876953 30.15185547 19.04503906 29.49121094 17.87695312 28.81054688 C8.71261517 23.4598412 8.71261517 23.4598412 5.11474609 21.13818359 C4.24543457 20.5808252 3.37612305 20.0234668 2.48046875 19.44921875 C1.73047607 18.95123779 0.9804834 18.45325684 0.20776367 17.94018555 C-2.70423775 16.70009736 -4.00994263 17.01517952 -7 18 C-8.97742346 18.98689853 -10.91691161 20.05156753 -12.82421875 21.16796875 C-14.49194336 22.13766602 -14.49194336 22.13766602 -16.19335938 23.12695312 C-17.3581425 23.81368407 -18.52285572 24.50053361 -19.6875 25.1875 C-20.82123047 25.84814453 -21.95496094 26.50878906 -23.12304688 27.18945312 C-29.56178264 30.93106315 -29.56178264 30.93106315 -35.88525391 34.86181641 C-36.75456543 35.4191748 -37.62387695 35.9765332 -38.51953125 36.55078125 C-39.26952393 37.04876221 -40.0195166 37.54674316 -40.79223633 38.05981445 C-43.63577648 39.27074812 -45.08528627 38.91125327 -48 38 C-50.14080772 36.87990361 -52.24470821 35.68726427 -54.3125 34.4375 C-55.91544922 33.47650391 -55.91544922 33.47650391 -57.55078125 32.49609375 C-58.35902344 32.00238281 -59.16726562 31.50867188 -60 31 C-56.60812787 28.1605802 -53.22250019 25.87082957 -49.34375 23.75 C-48.24796631 23.14687988 -47.15218262 22.54375977 -46.02319336 21.92236328 C-45.44793915 21.6084967 -44.87268494 21.29463013 -44.27999878 20.97125244 C-41.25567309 19.32103574 -38.23966068 17.6557396 -35.22265625 15.9921875 C-34.61531143 15.65782684 -34.00796661 15.32346619 -33.38221741 14.97897339 C-26.63598863 11.25960889 -19.95223469 7.43258944 -13.2734375 3.59375 C-12.47035156 3.13226563 -11.66726563 2.67078125 -10.83984375 2.1953125 C-10.14238037 1.79328613 -9.44491699 1.39125977 -8.72631836 0.97705078 C-5.23711629 -0.99774581 -3.92802163 -1.08638456 0 0 Z " fill="#40484D" transform="translate(274,260)"/>
<path d="M0 0 C0.2088764 8.24064484 0.36860936 16.48017782 0.46630955 24.72281837 C0.51321163 28.5507034 0.57677372 32.37677319 0.67895508 36.20361328 C0.7770211 39.89961823 0.83061017 43.59388233 0.85389519 47.2910881 C0.87047844 48.69869782 0.90286737 50.10621595 0.95157051 51.5130806 C1.31650384 62.49530154 1.31650384 62.49530154 -1.84844971 66.11268616 C-4.16684008 67.69016757 -6.43827718 68.86788781 -9 70 C-10.05558105 70.62156982 -11.11116211 71.24313965 -12.19873047 71.88354492 C-13.16182129 72.41052979 -14.12491211 72.93751465 -15.1171875 73.48046875 C-16.7571167 74.38333618 -16.7571167 74.38333618 -18.43017578 75.30444336 C-19.56696777 75.92585205 -20.70375977 76.54726074 -21.875 77.1875 C-24.26708149 78.50257389 -26.65729167 79.82101798 -29.046875 81.140625 C-29.63715485 81.46634995 -30.22743469 81.79207489 -30.83560181 82.12767029 C-37.12226332 85.60543843 -43.3345349 89.20783731 -49.52685547 92.8503418 C-54.90154599 96 -54.90154599 96 -56 96 C-56 90.06 -56 84.12 -56 78 C-54.19015625 76.99839844 -52.3803125 75.99679687 -50.515625 74.96484375 C-48.71808378 73.96882642 -46.92079845 72.97234881 -45.12353516 71.97583008 C-43.89626129 71.29566384 -42.6687316 70.61595895 -41.44091797 69.93676758 C-39.65260501 68.94741016 -37.86512702 67.95656693 -36.078125 66.96484375 C-35.48874146 66.63801605 -34.89935791 66.31118835 -34.29211426 65.97445679 C-29.24326064 63.16230874 -24.27310621 60.2290232 -19.31933594 57.25219727 C-17 56 -17 56 -15 56 C-15 40.16 -15 24.32 -15 8 C-1 0 -1 0 0 0 Z " fill="#3F484D" transform="translate(334,304)"/>
<path d="M0 0 C9.765625 4.78515625 9.765625 4.78515625 11.70019531 5.82641602 C14.10293265 7.09513053 14.10293265 7.09513053 17.13574219 8.26538086 C20.64829821 9.87802951 23.22513068 11.2972375 26 14 C27.480842 19.20592039 27.14482948 24.1178556 26.75 29.4375 C26.6897335 30.85068457 26.63499307 32.26411624 26.5859375 33.67773438 C26.45437893 37.12366597 26.2478527 40.56024943 26 44 C19.31535402 40.70762455 12.68565217 37.38330076 6.25 33.625 C4.1875 32.42875 2.125 31.2325 0 30 C0 20.1 0 10.2 0 0 Z " fill="#40484D" transform="translate(278,298)"/>
<path d="M0 0 C2.60888672 1.21508789 2.60888672 1.21508789 5.1796875 2.72265625 C6.571875 3.52993164 6.571875 3.52993164 7.9921875 4.35351562 C8.94351563 4.91748047 9.89484375 5.48144531 10.875 6.0625 C12.33679688 6.91424805 12.33679688 6.91424805 13.828125 7.78320312 C16.2237038 9.18062409 18.61396262 10.58636981 21 12 C21 12.66 21 13.32 21 14 C17.30733308 16.21479526 13.5937081 18.39176015 9.875 20.5625 C8.82828125 21.19091797 7.7815625 21.81933594 6.703125 22.46679688 C5.17558594 23.35141602 5.17558594 23.35141602 3.6171875 24.25390625 C2.68503418 24.80377197 1.75288086 25.3536377 0.79248047 25.92016602 C-2.67846614 27.26235843 -4.44344587 27.00714509 -8 26 C-10.60888672 24.78491211 -10.60888672 24.78491211 -13.1796875 23.27734375 C-14.1078125 22.73916016 -15.0359375 22.20097656 -15.9921875 21.64648438 C-16.94351562 21.08251953 -17.89484375 20.51855469 -18.875 19.9375 C-19.84953125 19.36966797 -20.8240625 18.80183594 -21.828125 18.21679688 C-24.2237038 16.81937591 -26.61396262 15.41363019 -29 14 C-29 13.34 -29 12.68 -29 12 C-25.30733308 9.78520474 -21.5937081 7.60823985 -17.875 5.4375 C-16.30492187 4.49487305 -16.30492187 4.49487305 -14.703125 3.53320312 C-13.68476563 2.94345703 -12.66640625 2.35371094 -11.6171875 1.74609375 C-10.68503418 1.19622803 -9.75288086 0.6463623 -8.79248047 0.07983398 C-5.32153386 -1.26235843 -3.55655413 -1.00714509 0 0 Z " fill="#3E474B" transform="translate(274,342)"/>
<path d="M0 0 C0 9.9 0 19.8 0 30 C-3.75375 32.145 -7.5075 34.29 -11.375 36.5 C-12.55755371 37.17869141 -13.74010742 37.85738281 -14.95849609 38.55664062 C-15.88742676 39.08451172 -16.81635742 39.61238281 -17.7734375 40.15625 C-18.72653809 40.70087891 -19.67963867 41.24550781 -20.66162109 41.80664062 C-23 43 -23 43 -25 43 C-26.47138742 33.57368852 -27.97831272 23.23032924 -25 14 C-20.02894569 8.16152732 -8.07947622 0 0 0 Z " fill="#3D474B" transform="translate(262,298)"/>
<path d="M0 0 C1.65 0 3.3 0 5 0 C5.33 1.65 5.66 3.3 6 5 C4.35 5.33 2.7 5.66 1 6 C-0.0625 4.125 -0.0625 4.125 -1 2 C-0.67 1.34 -0.34 0.68 0 0 Z " fill="#E51A1A" transform="translate(568,1)"/>
</svg>
